<svg xmlns="http://www.w3.org/2000/svg" viewBox="0 0 1200 400">
<defs>
<linearGradient id="bgGrad" x1="0" y1="0" x2="1" y2="1">
<stop offset="0%" stop-color="#0a192f"/>
<stop offset="100%" stop-color="#172a45"/>
</linearGradient>
<linearGradient id="titleGrad" x1="0" y1="0" x2="1" y2="0">
<stop offset="0%" stop-color="#ffffff"/>
<stop offset="100%" stop-color="#FFD166"/>
</linearGradient>
<radialGradient id="rightGlow" cx="80%" cy="50%" r="40%">
<stop offset="0%" stop-color="#FF8C42" stop-opacity="0.18"/>
<stop offset="100%" stop-color="#FF8C42" stop-opacity="0"/>
</radialGradient>
</defs>
<rect width="1200" height="400" fill="url(#bgGrad)"/>
<rect width="1200" height="400" fill="url(#rightGlow)"/>
<g stroke="#1d3557" stroke-width="1" opacity="0.35">
<line x1="0" y1="80" x2="1200" y2="80"/>
<line x1="0" y1="160" x2="1200" y2="160"/>
<line x1="0" y1="240" x2="1200" y2="240"/>
<line x1="0" y1="320" x2="1200" y2="320"/>
</g>
<g opacity="0.55">
<line x1="850" y1="120" x2="950" y2="200" stroke="#FFD166" stroke-width="1.5"/>
<line x1="950" y1="200" x2="1050" y2="140" stroke="#FFD166" stroke-width="1.5"/>
<line x1="950" y1="200" x2="1100" y2="280" stroke="#FFD166" stroke-width="1.5"/>
<line x1="850" y1="120" x2="900" y2="280" stroke="#FF8C42" stroke-width="1.5"/>
<line x1="900" y1="280" x2="1100" y2="280" stroke="#FF8C42" stroke-width="1.5"/>
<line x1="1050" y1="140" x2="1150" y2="220" stroke="#ffffff" stroke-width="1.2"/>
<line x1="950" y1="200" x2="1150" y2="220" stroke="#ffffff" stroke-width="1"/>
<circle cx="850" cy="120" r="8" fill="#FFD166"/>
<circle cx="950" cy="200" r="11" fill="#FF8C42"/>
<circle cx="1050" cy="140" r="7" fill="#ffffff"/>
<circle cx="900" cy="280" r="7" fill="#FF8C42"/>
<circle cx="1100" cy="280" r="8" fill="#FFD166"/>
<circle cx="1150" cy="220" r="6" fill="#ffffff"/>
</g>
<rect x="0" y="0" width="6" height="100" fill="#FF8C42"/>
<rect x="0" y="100" width="6" height="100" fill="#8D2C3C"/>
<rect x="0" y="200" width="6" height="100" fill="#00534E"/>
<rect x="0" y="300" width="6" height="100" fill="#FFD166"/>
<text x="80" y="100" font-family="Helvetica, Arial, sans-serif" font-size="13" fill="#FFD166" letter-spacing="6" font-weight="700">SRI  LANKA   &#183;   CHAPTER   &#183;   2026</text>
<text x="80" y="195" font-family="Helvetica, Arial, sans-serif" font-size="64" font-weight="800" fill="url(#titleGrad)" letter-spacing="-1.5">AI Safety Sri Lanka</text>
<text x="80" y="240" font-family="Helvetica, Arial, sans-serif" font-size="24" font-weight="300" fill="#a8b2d1" letter-spacing="0.5">Governance  &#183;  Ethics  &#183;  Open Resources</text>
<text x="80" y="320" font-family="Consolas, 'Courier New', monospace" font-size="13" fill="#6c7898" letter-spacing="1">github.com/Vidura-Wijekoon/aisge-srilanka</text>
</svg>
